<?xml version="1.0" encoding="utf-8"?>
<!-- Generator: Adobe Illustrator 24.1.3, SVG Export Plug-In . SVG Version: 6.00 Build 0)  -->
<svg version="1.1" id="Laag_1" xmlns="http://www.w3.org/2000/svg" xmlns:xlink="http://www.w3.org/1999/xlink" x="0px" y="0px"
	 viewBox="0 0 1062.3 235.9" style="enable-background:new 0 0 1062.3 235.9;" xml:space="preserve">
<style type="text/css">
	.st0{fill:#312783;}
	.st1{fill:#00A19A;}
	.st2{fill:#DEDC00;}
	.st3{fill:none;stroke:#312783;stroke-miterlimit:10;}
	.st4{enable-background:new    ;}
</style>
<g>
	<path class="st0" d="M267.9,85.3l-10.5-13.9l-2.7,3.2v10.7h-7.4V50.7h7.4v15.5l12.3-15.5h9.1l-13.8,16.3L277,85.3
		C277,85.3,267.9,85.3,267.9,85.3z"/>
	<path class="st0" d="M305.8,85.3l-2.1-5.9h-14.9l-2.2,5.9h-8.4l13.4-34.7h9.3l13.4,34.7H305.8z M296.3,58L290.9,73h10.8L296.3,58z"
		/>
	<path class="st0" d="M323.7,85.3V57.2h-10.1v-6.5h27.7v6.5h-10.1v28.2H323.7z"/>
	<path class="st0" d="M371.3,85.3V70.8h-16.4v14.6h-7.4V50.7h7.4v13.6h16.4V50.7h7.4v34.7H371.3z"/>
	<path class="st0" d="M385.4,68c0-10.5,7.6-17.9,18.1-17.9c10.5,0,18.1,7.5,18.1,17.9S414,86,403.5,86C393.1,86,385.4,78.5,385.4,68
		z M414.1,68c0-6.5-4.2-11.4-10.6-11.4S393,61.5,393,68c0,6.4,4.1,11.4,10.5,11.4C409.9,79.4,414.1,74.5,414.1,68z"/>
	<path class="st0" d="M428.4,85.3V50.7h7.4v28.2h14.7v6.5L428.4,85.3L428.4,85.3z"/>
	<path class="st0" d="M457.2,85.3V50.7h7.4v34.7H457.2z"/>
	<path class="st0" d="M473,85.3V50.7h24.5v6.5h-17.2v7.3h16.8V71h-16.8v7.8h17.2v6.5H473z"/>
	<path class="st0" d="M525.5,85.3L515,71.5l-2.7,3.2v10.7h-7.4V50.7h7.4v15.5l12.3-15.5h9.1l-13.8,16.3l14.7,18.4
		C534.6,85.3,525.5,85.3,525.5,85.3z"/>
	<path class="st0" d="M245.6,118c0-10.4,7.6-17.9,18.1-17.9c10.5,0,18.1,7.5,18.1,17.9s-7.6,17.9-18.1,17.9
		C253.2,136,245.6,128.5,245.6,118z M274.3,118c0-6.5-4.2-11.4-10.6-11.4s-10.5,4.9-10.5,11.4c0,6.4,4.1,11.4,10.5,11.4
		C270.1,129.4,274.3,124.5,274.3,118z"/>
	<path class="st0" d="M312.5,135.4L296,112.7v22.6h-7.4v-34.7h7.6l16.1,21.8v-21.8h7.4v34.7H312.5z"/>
	<path class="st0" d="M328.1,135.4v-34.7h13.7c10.9,0,18.4,6.9,18.4,17.4s-7.5,17.3-18.4,17.3H328.1z M352.6,118
		c0-6.1-3.7-10.9-10.9-10.9h-6.3v21.7h6.3C348.6,128.9,352.6,123.9,352.6,118z"/>
	<path class="st0" d="M367,135.4v-34.7h24.5v6.5h-17.2v7.3h16.8v6.5h-16.8v7.9h17.2v6.5L367,135.4L367,135.4z"/>
	<path class="st0" d="M418.5,135.4l-6.8-12.3h-5.4v12.3h-7.4v-34.7h16.2c7.2,0,11.6,4.7,11.6,11.2c0,6.1-3.9,9.4-7.6,10.3l7.8,13.2
		H418.5z M419.2,111.8c0-2.9-2.2-4.7-5.2-4.7h-7.8v9.4h7.8C417,116.5,419.2,114.8,419.2,111.8z"/>
	<path class="st0" d="M460.4,135.4l-6.1-23.8l-6,23.8h-7.9l-9.9-34.7h8.3l6.1,25.1l6.6-25.1h5.8l6.5,25.1l6-25.1h8.3l-9.9,34.7
		H460.4z"/>
	<path class="st0" d="M483.1,135.4v-34.7h7.4v34.7H483.1z"/>
	<path class="st0" d="M495.8,132.6l3.2-5.7c1.4,1.3,3.1,2.5,5.5,2.5c3.3,0,5.4-2.2,5.4-5.6v-23.2h7.4V124c0,8.2-5.1,12-12.2,12
		C501.6,136,498.3,135,495.8,132.6z"/>
	<path class="st0" d="M523.4,130.5l4-5.6c2.4,2.6,6.2,4.7,11,4.7c4.1,0,6-1.9,6-3.9c0-6.1-20-1.9-20-15c0-5.8,5-10.6,13.2-10.6
		c5.5,0,10.1,1.7,13.5,4.8l-4.1,5.4c-2.8-2.6-6.5-3.8-10.1-3.8c-3.2,0-4.9,1.4-4.9,3.5c0,5.5,19.9,1.8,19.9,14.8
		c0,6.3-4.5,11.1-13.9,11.1C531.5,136,526.7,133.7,523.4,130.5z"/>
	<path class="st0" d="M261.9,185.4l-6.6-10.3h-5.2v10.3h-3.2v-26h10.4c4.8,0,8.1,3,8.1,7.8c0,4.7-3.2,7.2-6.8,7.6l7,10.6
		L261.9,185.4L261.9,185.4z M262.1,167.2c0-2.9-2.1-4.9-5.2-4.9h-6.8v9.9h6.8C260,172.2,262.1,170.1,262.1,167.2z"/>
	<path class="st0" d="M269.4,172.4c0-7.7,5.2-13.5,12.9-13.5c7.7,0,12.9,5.8,12.9,13.5c0,7.7-5.2,13.5-12.9,13.5
		C274.6,185.8,269.4,180,269.4,172.4z M291.9,172.4c0-6.1-3.7-10.6-9.6-10.6c-5.9,0-9.6,4.5-9.6,10.6c0,6,3.7,10.6,9.6,10.6
		C288.1,182.9,291.9,178.4,291.9,172.4z"/>
	<path class="st0" d="M318.5,185.4l-15.2-20.8v20.8h-3.2v-26h3.3l15,20.3v-20.3h3.2v26L318.5,185.4L318.5,185.4z"/>
	<path class="st0" d="M326,181.7l1.9-2.5c1.7,1.9,4.5,3.7,8.2,3.7c4.6,0,6.1-2.5,6.1-4.5c0-6.7-15.4-3-15.4-12.3
		c0-4.3,3.8-7.2,8.9-7.2c4,0,7.1,1.3,9.2,3.6l-2,2.4c-2-2.1-4.7-3.1-7.5-3.1c-3.1,0-5.3,1.7-5.3,4.1c0,5.9,15.4,2.5,15.4,12.2
		c0,3.8-2.6,7.6-9.6,7.6C331.5,185.8,328.2,184.1,326,181.7z"/>
	<path class="st0" d="M350.3,185.4v-26h17v2.9h-13.8v8.4H367v2.9h-13.5v9h13.8v2.9L350.3,185.4L350.3,185.4z"/>
</g>
<g>
	<path class="st1" d="M102.2,234.5c0.2,0,0.3,0,0.5,0c-0.2-0.4-0.3-0.7-0.5-1L102.2,234.5z"/>
	<g>
		<path class="st0" d="M98.3,186.5l-52.7-30.4c-2.9-1.7-4.7-4.7-4.7-8.1l-0.5-57.9v-2.3c0-1.7,0.5-3.2,1.5-4.6
			C29.4,74.5,15.3,68,1.8,60.2c-1.3,2.8-1.6,5.5-1.7,6.4c0,0.1,0,0.9,0,0.7c0,0.1,0,0.2,0,0.4L0,167.3c-0.3,9,5.8,13.8,8.1,15.2
			l86.2,49.8c0.1,0.1,0.2,0.1,0.4,0.2c1.7,1,3.6,1.6,5.4,1.8c0.2,0,0.4,0.1,0.6,0.1c0,0,0.1,0,0.1,0c0.5,0,0.9,0,1.4,0l0.4-47
			C101.3,187.5,99.8,187.2,98.3,186.5z"/>
		<g>
			<path class="st1" d="M159,204.1l-36.2-26.8l-13.7,7.9v0l-1.3,0.8c-1.6,0.9-3.3,1.5-5.1,1.6l-0.4,45.9c0.2,0.4,0.3,0.7,0.5,1
				c3.4-0.2,6.3-1.4,7.2-1.8l0,0L159,204.1z"/>
			<path class="st2" d="M203.1,59.7c0,0-1.7-3.9-7-6.7L111.6,4.1c-7.7-4.8-14.8-1.8-17.2-0.6L8.1,53.3c-0.1,0.1-0.2,0.1-0.4,0.2
				c-1.7,1-3.1,2.3-4.3,3.8c-0.1,0.2-0.2,0.3-0.3,0.5c0,0,0,0.1-0.1,0.1c-0.5,0.8-0.9,1.6-1.3,2.3C15.3,68,29.4,74.5,42,83.3
				c0.9-1.4,2.2-2.6,3.8-3.7l52.7-30.4c2.9-1.7,6.4-1.7,9.3,0l52.1,29.6c0,0,1.4,0.9,2.1,1.8c0.6,0.7,1.1,1.4,1.5,2.2
				c13.6-6.8,27.2-12.7,40.9-19.4C203.8,60.9,203.1,59.7,203.1,59.7z"/>
			<path class="st1" d="M163.5,82.7c0.7,1.3,1,2.7,1,4.2v60.9c0,3.3-1.8,6.4-4.6,8.1l-10,5.7l9.8,42.1l36.9-21.5
				c7.9-4.6,8.4-15.1,8.4-15.1V88c0-8.7,0-15.4,0-19.6c0-5.8-1.1-6.4-1.4-7.7C189.9,67.5,177.2,75.9,163.5,82.7z"/>
		</g>
	</g>
</g>
<line class="st3" x1="613" y1="48" x2="613" y2="187.9"/>
<g class="st4">
	<path class="st1" d="M673.8,93.1c0-7.4,5.6-12.4,12.6-12.4c5.5,0,8.5,2.9,10.2,5.9l-4.4,2.2c-1-1.9-3.2-3.5-5.8-3.5
		c-4.2,0-7.3,3.3-7.3,7.9s3.2,7.9,7.3,7.9c2.7,0,4.8-1.5,5.8-3.5l4.4,2.1c-1.7,3-4.8,5.9-10.2,5.9
		C679.4,105.5,673.8,100.5,673.8,93.1z"/>
	<path class="st1" d="M714.7,100.9H704l-1.5,4.1h-5.6l9.3-24h6.4l9.2,24h-5.6L714.7,100.9z M705.4,96.5h8l-4-11L705.4,96.5z"/>
	<path class="st1" d="M744.9,87.8l-6.8,17.3h-2.2l-6.8-17.3v17.3H724v-24h7.2l5.8,15l5.8-15h7.2v24h-5.1V87.8z"/>
	<path class="st1" d="M754.8,81.1h11.2c5.2,0,8.1,3.5,8.1,7.7c0,4.2-2.9,7.7-8.1,7.7h-6.1v8.6h-5.1V81.1z M765.4,85.4h-5.4v6.6h5.4
		c2,0,3.5-1.3,3.5-3.3C768.9,86.8,767.4,85.4,765.4,85.4z"/>
	<path class="st1" d="M777.3,81.1h5.2v14.3c0,3.3,1.8,5.7,5.6,5.7c3.7,0,5.5-2.3,5.5-5.7V81.1h5.2v14.4c0,6-3.4,10-10.7,10
		c-7.3,0-10.8-4.1-10.8-10V81.1z"/>
	<path class="st1" d="M804.7,97.8c1.7,1.8,4.3,3.2,7.6,3.2c2.8,0,4.2-1.3,4.2-2.7c0-1.8-2.1-2.4-4.9-3.1c-3.9-0.9-9-2-9-7.3
		c0-4,3.5-7.2,9.1-7.2c3.8,0,7,1.2,9.4,3.3l-2.8,3.7c-1.9-1.8-4.5-2.6-6.9-2.6c-2.3,0-3.5,1-3.5,2.4c0,1.6,2,2.1,4.8,2.8
		c4,0.9,9,2.1,9,7.4c0,4.4-3.1,7.7-9.6,7.7c-4.6,0-7.9-1.5-10.2-3.8L804.7,97.8z"/>
</g>
<g class="st4">
	<path class="st1" d="M686.6,126.7c5,0,8.1,2.4,9.9,5.3l-4.2,2.3c-1.1-1.7-3.2-3-5.7-3c-4.4,0-7.5,3.3-7.5,7.9s3.2,7.9,7.5,7.9
		c2.2,0,4.1-0.9,5.2-1.8v-2.9h-6.4v-4.4h11.4v9.2c-2.4,2.7-5.9,4.5-10.2,4.5c-7,0-12.8-4.9-12.8-12.5
		C673.8,131.5,679.6,126.7,686.6,126.7z"/>
	<path class="st1" d="M700.9,127.1h5.1v19.5h10.2v4.5h-15.3V127.1z"/>
	<path class="st1" d="M730.1,126.7c7.3,0,12.6,5.2,12.6,12.4s-5.3,12.4-12.6,12.4c-7.2,0-12.5-5.2-12.5-12.4
		S722.9,126.7,730.1,126.7z M730.1,131.2c-4.4,0-7.3,3.4-7.3,7.9c0,4.5,2.8,7.9,7.3,7.9c4.4,0,7.3-3.4,7.3-7.9
		C737.4,134.6,734.5,131.2,730.1,131.2z"/>
	<path class="st1" d="M755.1,142.5h-3.7v8.6h-5.1v-24h11.2c5,0,8.1,3.3,8.1,7.7c0,4.2-2.7,6.5-5.3,7.1l5.4,9.1h-5.9L755.1,142.5z
		 M756.7,131.4h-5.4v6.6h5.4c2.1,0,3.6-1.3,3.6-3.3S758.8,131.4,756.7,131.4z"/>
	<path class="st1" d="M769.4,127.1h5.1v24h-5.1V127.1z"/>
	<path class="st1" d="M779.3,127.1h17v4.4h-11.9v5.2H796v4.4h-11.6v5.6h11.9v4.4h-17V127.1z"/>
	<path class="st1" d="M800.3,127.1h5.2v14.3c0,3.3,1.8,5.7,5.6,5.7c3.7,0,5.5-2.3,5.5-5.7v-14.3h5.2v14.4c0,6-3.4,10-10.7,10
		c-7.3,0-10.8-4.1-10.8-10V127.1z"/>
	<path class="st1" d="M836.1,142.3l-6,8.8H824l8.7-12.3l-8.2-11.7h6.1l5.5,8.2l5.4-8.2h6.2l-8.2,11.7l8.7,12.3h-6.1L836.1,142.3z"/>
	<path class="st1" d="M860.9,143.8c1.7,1.8,4.3,3.2,7.6,3.2c2.8,0,4.2-1.3,4.2-2.7c0-1.8-2.1-2.4-4.9-3.1c-3.9-0.9-9-2-9-7.3
		c0-4,3.5-7.2,9.1-7.2c3.8,0,7,1.2,9.4,3.3l-2.8,3.7c-1.9-1.8-4.5-2.6-6.9-2.6c-2.3,0-3.5,1-3.5,2.4c0,1.6,2,2.1,4.8,2.8
		c4,0.9,9,2.1,9,7.4c0,4.4-3.1,7.7-9.6,7.7c-4.6,0-7.9-1.5-10.2-3.8L860.9,143.8z"/>
	<path class="st1" d="M881.3,127.1h17v4.4h-11.9v5.2h11.6v4.4h-11.6v5.6h11.9v4.4h-17V127.1z"/>
	<path class="st1" d="M901.2,139.1c0-7.4,5.6-12.4,12.6-12.4c5.5,0,8.5,2.9,10.2,5.9l-4.4,2.2c-1-1.9-3.2-3.5-5.8-3.5
		c-4.2,0-7.3,3.3-7.3,7.9s3.2,7.9,7.3,7.9c2.7,0,4.8-1.5,5.8-3.5l4.4,2.1c-1.7,3-4.8,5.9-10.2,5.9
		C906.7,151.5,901.2,146.5,901.2,139.1z"/>
	<path class="st1" d="M927,127.1h5.2v14.3c0,3.3,1.8,5.7,5.6,5.7c3.7,0,5.5-2.3,5.5-5.7v-14.3h5.2v14.4c0,6-3.4,10-10.7,10
		c-7.3,0-10.8-4.1-10.8-10V127.1z"/>
	<path class="st1" d="M958.4,134.9v16.1h-5.1v-24h5.3l11.1,15.5v-15.5h5.1v24h-4.9L958.4,134.9z"/>
	<path class="st1" d="M979.5,127.1h9.5c7.5,0,12.7,4.8,12.7,12s-5.2,12-12.7,12h-9.5V127.1z M989,146.6c4.8,0,7.5-3.4,7.5-7.5
		c0-4.2-2.6-7.5-7.5-7.5h-4.4v15H989z"/>
	<path class="st1" d="M1019.4,146.9h-10.7l-1.5,4.1h-5.6l9.3-24h6.4l9.3,24h-5.6L1019.4,146.9z M1010.1,142.5h8l-4-11L1010.1,142.5z
		"/>
	<path class="st1" d="M1028.7,127.1h5.1v24h-5.1V127.1z"/>
	<path class="st1" d="M1047.5,142.5h-3.7v8.6h-5.1v-24h11.2c5,0,8.1,3.3,8.1,7.7c0,4.2-2.7,6.5-5.3,7.1l5.4,9.1h-5.9L1047.5,142.5z
		 M1049.1,131.4h-5.4v6.6h5.4c2.1,0,3.6-1.3,3.6-3.3S1051.1,131.4,1049.1,131.4z"/>
</g>
</svg>
